<svg width="122" height="120" viewBox="0 0 122 120" fill="none" xmlns="http://www.w3.org/2000/svg">
<mask id="path-1-inside-1_30_2" fill="white">
<path d="M0 96C0 92.6863 2.68629 90 6 90H121.059V120H6.00001C2.6863 120 0 117.314 0 114V96Z"/>
</mask>
<path d="M0 96C0 92.6863 2.68629 90 6 90H121.059V120H6.00001C2.6863 120 0 117.314 0 114V96Z" fill="#241F31"/>
<path d="M-0.5 96C-0.5 92.4101 2.41015 89.5 6 89.5H121.059V90.5H6C2.96243 90.5 0.5 92.9624 0.5 96H-0.5ZM121.059 120.5H6C2.41015 120.5 -0.5 117.59 -0.5 114H0.5C0.5 117.038 2.96243 119.5 6 119.5H121.059V120.5ZM6 120.5C2.41015 120.5 -0.5 117.59 -0.5 114V96C-0.5 92.4101 2.41015 89.5 6 89.5V90.5C2.96243 90.5 0.5 92.9624 0.5 96V114C0.5 117.038 2.96243 119.5 6 119.5V120.5ZM121.059 90V120V90Z" fill="black" mask="url(#path-1-inside-1_30_2)"/>
<rect x="0.15" y="90.15" width="40.5575" height="29.7" rx="5.85" fill="#3584E4" stroke="#1A5FB4" stroke-width="0.3"/>
<mask id="path-4-inside-2_30_2" fill="white">
<path d="M0 49.5C0 46.1863 2.68629 43.5 6 43.5H121.059V73.5H6.00001C2.6863 73.5 0 70.8138 0 67.5V49.5Z"/>
</mask>
<path d="M0 49.5C0 46.1863 2.68629 43.5 6 43.5H121.059V73.5H6.00001C2.6863 73.5 0 70.8138 0 67.5V49.5Z" fill="#241F31"/>
<path d="M-0.5 49.5C-0.5 45.9102 2.41015 43 6 43H121.059V44H6C2.96243 44 0.5 46.4625 0.5 49.5H-0.5ZM121.059 74H6C2.41015 74 -0.5 71.0899 -0.5 67.5H0.5C0.5 70.5376 2.96243 73 6 73H121.059V74ZM6 74C2.41015 74 -0.5 71.0899 -0.5 67.5V49.5C-0.5 45.9102 2.41015 43 6 43V44C2.96243 44 0.5 46.4625 0.5 49.5V67.5C0.5 70.5376 2.96243 73 6 73V74ZM121.059 43.5V73.5V43.5Z" fill="black" mask="url(#path-4-inside-2_30_2)"/>
<rect x="0.15" y="43.65" width="79.9017" height="29.7" rx="5.85" fill="#33D17A" stroke="#26A269" stroke-width="0.3"/>
<mask id="path-7-inside-3_30_2" fill="white">
<path d="M0 6C0 2.68629 2.68629 0 6 0H121.059V30H6.00001C2.6863 30 0 27.3137 0 24V6Z"/>
</mask>
<path d="M0 6C0 2.68629 2.68629 0 6 0H121.059V30H6.00001C2.6863 30 0 27.3137 0 24V6Z" fill="#241F31"/>
<path d="M-0.5 6C-0.5 2.41015 2.41015 -0.5 6 -0.5H121.059V0.5H6C2.96243 0.5 0.5 2.96243 0.5 6H-0.5ZM121.059 30.5H6C2.41015 30.5 -0.5 27.5899 -0.5 24H0.5C0.5 27.0376 2.96243 29.5 6 29.5H121.059V30.5ZM6 30.5C2.41015 30.5 -0.5 27.5899 -0.5 24V6C-0.5 2.41015 2.41015 -0.5 6 -0.5V0.5C2.96243 0.5 0.5 2.96243 0.5 6V24C0.5 27.0376 2.96243 29.5 6 29.5V30.5ZM121.059 0V30V0Z" fill="black" mask="url(#path-7-inside-3_30_2)"/>
<rect x="0.15" y="0.15" width="120.759" height="29.7" rx="5.85" fill="#C01C28" stroke="#A51D2D" stroke-width="0.3"/>
</svg>
